<svg xmlns="http://www.w3.org/2000/svg" width="28" height="16"><g data-name="Group 75"><g data-name="Group 73"><path data-name="Rectangle 184" fill="#fff" d="M0 .501h27.993V15.25H0z"/><path data-name="Path 128" d="M12.305.502v5.9H.012v2.949h12.293v5.9h3.364v-5.9h12.326V6.402H15.669v-5.9Z" fill="#ce1124"/><path data-name="Path 129" d="M0 5.43h6.106L0 2.219Z" fill="#00247d"/><path data-name="Path 130" d="M3.369.5H3.28l7.917 4.186V.5Z" fill="#00247d"/><path data-name="Path 131" d="m0 1.658 7.157 3.751h2.239L0 .496Z" fill="#ce1124"/><path data-name="Path 132" d="m18.604 10.34 9.4 4.908v-1.157l-7.157-3.751Z" fill="#ce1124"/><path data-name="Path 133" d="M0 10.344v3.211l6.106-3.211Z" fill="#00247d"/><path data-name="Path 134" d="M3.279 15.27h7.916v-4.19Z" fill="#00247d"/><path data-name="Path 135" d="M9.351 10.34.006 15.246h2.185l9.014-4.709v-.2Z" fill="#ce1124"/><path data-name="Path 136" d="M21.894 5.429H28V2.214Z" fill="#00247d"/><path data-name="Path 137" d="M16.802.5v4.19L24.721.5h-.09Z" fill="#00247d"/><path data-name="Path 138" d="M16.812 5.249v.166h1.92L27.99.507h-2.1Z" fill="#ce1124"/><path data-name="Path 139" d="M21.894 10.343 28 13.554v-3.211Z" fill="#00247d"/><path data-name="Path 140" d="M16.802 15.273h7.917l-7.917-4.186Z" fill="#00247d"/></g><g data-name="Rectangle 52" fill="none" stroke="#3c3f40" opacity=".3"><path d="M0 0h28v16H0z" stroke="none"/><path d="M.5.5h27v15H.5z"/></g></g></svg>