<svg xmlns="http://www.w3.org/2000/svg" width="33" height="33" fill="currentColor"><defs><clipPath id="a"><path data-name="Rectangle 182" transform="translate(-.019 -.396)" d="M0 0h33v33H0z"/></clipPath></defs><g data-name="Group 71"><g data-name="Group 70" transform="translate(.019 .396)" clip-path="url(#a)"><path data-name="Path 125" d="M16.594 2.548c4.41 0 4.932.017 6.674.1a9.138 9.138 0 0 1 3.067.569 5.118 5.118 0 0 1 1.9 1.235 5.117 5.117 0 0 1 1.235 1.9 9.139 9.139 0 0 1 .569 3.067c.079 1.742.1 2.264.1 6.674s-.017 4.932-.1 6.674a9.139 9.139 0 0 1-.569 3.067 5.47 5.47 0 0 1-3.135 3.135 9.138 9.138 0 0 1-3.067.569c-1.741.079-2.264.1-6.674.1s-4.933-.017-6.674-.1a9.138 9.138 0 0 1-3.067-.569 5.119 5.119 0 0 1-1.9-1.235 5.118 5.118 0 0 1-1.235-1.9 9.14 9.14 0 0 1-.569-3.067c-.079-1.742-.1-2.264-.1-6.674s.017-4.932.1-6.674a9.14 9.14 0 0 1 .57-3.072 5.118 5.118 0 0 1 1.235-1.9 5.119 5.119 0 0 1 1.9-1.235 9.138 9.138 0 0 1 3.067-.569c1.742-.079 2.264-.1 6.674-.1m0-2.976c-4.486 0-5.048.019-6.81.1a12.124 12.124 0 0 0-4.006.772A8.1 8.1 0 0 0 2.85 2.344 8.1 8.1 0 0 0 .945 5.272a12.123 12.123 0 0 0-.766 4.007c-.08 1.762-.1 2.324-.1 6.81s.019 5.048.1 6.81a12.123 12.123 0 0 0 .768 4.009 8.1 8.1 0 0 0 1.903 2.924 8.1 8.1 0 0 0 2.929 1.905 12.124 12.124 0 0 0 4.009.768c1.761.08 2.324.1 6.81.1s5.048-.019 6.809-.1a12.124 12.124 0 0 0 4.009-.768 8.445 8.445 0 0 0 4.83-4.83 12.123 12.123 0 0 0 .768-4.009c.08-1.762.1-2.324.1-6.81s-.019-5.048-.1-6.81a12.123 12.123 0 0 0-.771-4.006 8.1 8.1 0 0 0-1.905-2.925A8.1 8.1 0 0 0 27.413.439a12.124 12.124 0 0 0-4.009-.767c-1.762-.081-2.325-.1-6.81-.1" fill="#3c3f40"/><path data-name="Path 126" d="M16.594 7.606a8.481 8.481 0 1 0 8.481 8.481 8.481 8.481 0 0 0-8.481-8.481m0 13.987a5.505 5.505 0 1 1 5.505-5.505 5.505 5.505 0 0 1-5.505 5.505" fill="#3c3f40"/><path data-name="Path 127" d="M27.392 7.274a1.982 1.982 0 1 1-1.982-1.982 1.982 1.982 0 0 1 1.982 1.982"/></g></g></svg>